<mxfile host="app.diagrams.net" modified="2024-05-31T12:47:41.482Z" agent="Mozilla/5.0 (X11; Linux x86_64; rv:126.0) Gecko/20100101 Firefox/126.0" etag="YPi1e6M-kl_HJVrLT23c" version="24.4.11" type="github">
  <diagram name="Page-1" id="HaIGnK4oBKCUf0zDOcYd">
    <mxGraphModel dx="1264" dy="586" grid="0" gridSize="10" guides="1" tooltips="1" connect="1" arrows="1" fold="1" page="0" pageScale="1" pageWidth="850" pageHeight="1100" math="0" shadow="0">
      <root>
        <mxCell id="0" />
        <mxCell id="1" parent="0" />
        <mxCell id="sgFyzHYu5diykc7bS-y--1" value="&lt;div&gt;:View&lt;/div&gt;&lt;div&gt;Registrazione&lt;br&gt;&lt;/div&gt;" style="rounded=0;whiteSpace=wrap;html=1;fillColor=#f8cecc;strokeColor=#b85450;" vertex="1" parent="1">
          <mxGeometry x="-192" y="-91" width="120" height="60" as="geometry" />
        </mxCell>
        <mxCell id="sgFyzHYu5diykc7bS-y--2" value="&lt;div&gt;:Registrazione&lt;/div&gt;&lt;div&gt;Controller&lt;br&gt;&lt;/div&gt;" style="rounded=0;whiteSpace=wrap;html=1;fillColor=#d5e8d4;strokeColor=#82b366;" vertex="1" parent="1">
          <mxGeometry x="8" y="-89" width="120" height="60" as="geometry" />
        </mxCell>
        <mxCell id="sgFyzHYu5diykc7bS-y--3" value="&lt;div&gt;:View&lt;/div&gt;&lt;div&gt;Login&lt;br&gt;&lt;/div&gt;" style="rounded=0;whiteSpace=wrap;html=1;fillColor=#f8cecc;strokeColor=#b85450;" vertex="1" parent="1">
          <mxGeometry x="208" y="-89" width="120" height="60" as="geometry" />
        </mxCell>
        <mxCell id="sgFyzHYu5diykc7bS-y--4" value="" style="endArrow=none;dashed=1;html=1;dashPattern=1 3;strokeWidth=2;rounded=0;exitX=0.5;exitY=1;exitDx=0;exitDy=0;" edge="1" parent="1" source="sgFyzHYu5diykc7bS-y--1">
          <mxGeometry width="50" height="50" relative="1" as="geometry">
            <mxPoint x="255" y="42" as="sourcePoint" />
            <mxPoint x="-132" y="447" as="targetPoint" />
          </mxGeometry>
        </mxCell>
        <mxCell id="sgFyzHYu5diykc7bS-y--5" value="" style="endArrow=none;dashed=1;html=1;dashPattern=1 3;strokeWidth=2;rounded=0;exitX=0.5;exitY=1;exitDx=0;exitDy=0;" edge="1" parent="1" source="sgFyzHYu5diykc7bS-y--2">
          <mxGeometry width="50" height="50" relative="1" as="geometry">
            <mxPoint x="69" y="-21" as="sourcePoint" />
            <mxPoint x="68" y="450" as="targetPoint" />
          </mxGeometry>
        </mxCell>
        <mxCell id="sgFyzHYu5diykc7bS-y--6" value="" style="endArrow=none;dashed=1;html=1;dashPattern=1 3;strokeWidth=2;rounded=0;exitX=0.5;exitY=1;exitDx=0;exitDy=0;" edge="1" parent="1" source="sgFyzHYu5diykc7bS-y--3">
          <mxGeometry width="50" height="50" relative="1" as="geometry">
            <mxPoint x="265" y="-20" as="sourcePoint" />
            <mxPoint x="267" y="453" as="targetPoint" />
          </mxGeometry>
        </mxCell>
        <mxCell id="sgFyzHYu5diykc7bS-y--8" value="" style="endArrow=classic;html=1;rounded=0;startArrow=oval;startFill=1;" edge="1" parent="1">
          <mxGeometry width="50" height="50" relative="1" as="geometry">
            <mxPoint x="-278" y="-1" as="sourcePoint" />
            <mxPoint x="-131" y="-1" as="targetPoint" />
          </mxGeometry>
        </mxCell>
        <mxCell id="sgFyzHYu5diykc7bS-y--9" value="registrazione" style="text;html=1;align=center;verticalAlign=middle;resizable=0;points=[];autosize=1;strokeColor=none;fillColor=none;" vertex="1" parent="1">
          <mxGeometry x="-263" y="-29.5" width="106" height="29" as="geometry" />
        </mxCell>
        <mxCell id="sgFyzHYu5diykc7bS-y--10" value="alt" style="shape=umlFrame;whiteSpace=wrap;html=1;pointerEvents=0;" vertex="1" parent="1">
          <mxGeometry x="-323" y="26" width="675" height="303" as="geometry" />
        </mxCell>
        <mxCell id="sgFyzHYu5diykc7bS-y--11" value="Attore=Utente" style="text;html=1;align=center;verticalAlign=middle;resizable=0;points=[];autosize=1;strokeColor=none;fillColor=none;" vertex="1" parent="1">
          <mxGeometry x="-323" y="57.5" width="112" height="29" as="geometry" />
        </mxCell>
        <mxCell id="sgFyzHYu5diykc7bS-y--12" value="Attore=GestorePalestra" style="text;html=1;align=center;verticalAlign=middle;resizable=0;points=[];autosize=1;strokeColor=none;fillColor=none;" vertex="1" parent="1">
          <mxGeometry x="-323" y="202" width="172" height="29" as="geometry" />
        </mxCell>
      </root>
    </mxGraphModel>
  </diagram>
</mxfile>
